<svg xmlns="http://www.w3.org/2000/svg" xmlns:xlink="http://www.w3.org/1999/xlink" version="1.1" class="marks" width="898" height="535" viewBox="0 0 898 535"><g fill="none" stroke-miterlimit="10" transform="translate(15,67)"><g class="mark-group role-frame root" role="graphics-object" aria-roledescription="group mark container"><g transform="translate(0,0)"><path class="background" aria-hidden="true" d="M0,0h805v400h-805Z"/><g><g class="mark-text role-mark" role="graphics-object" aria-roledescription="text mark container" pointer-events="none"><text text-anchor="middle" transform="translate(402.5,384.5)" font-family="sans-serif" font-size="11px" fill="#666">0 a 14</text><text text-anchor="middle" transform="translate(402.5,358.5)" font-family="sans-serif" font-size="11px" fill="#666">15 a 19</text><text text-anchor="middle" transform="translate(402.5,332.5)" font-family="sans-serif" font-size="11px" fill="#666">20 a 24</text><text text-anchor="middle" transform="translate(402.5,306.5)" font-family="sans-serif" font-size="11px" fill="#666">25 a 29</text><text text-anchor="middle" transform="translate(402.5,280.5)" font-family="sans-serif" font-size="11px" fill="#666">30 a 34</text><text text-anchor="middle" transform="translate(402.5,254.5)" font-family="sans-serif" font-size="11px" fill="#666">35 a 39</text><text text-anchor="middle" transform="translate(402.5,228.5)" font-family="sans-serif" font-size="11px" fill="#666">40 a 44</text><text text-anchor="middle" transform="translate(402.5,202.5)" font-family="sans-serif" font-size="11px" fill="#666">45 a 49</text><text text-anchor="middle" transform="translate(402.5,176.5)" font-family="sans-serif" font-size="11px" fill="#666">50 a 54</text><text text-anchor="middle" transform="translate(402.5,150.5)" font-family="sans-serif" font-size="11px" fill="#666">55 a 59</text><text text-anchor="middle" transform="translate(402.5,124.5)" font-family="sans-serif" font-size="11px" fill="#666">60 a 64</text><text text-anchor="middle" transform="translate(402.5,98.5)" font-family="sans-serif" font-size="11px" fill="#666">65 a 69</text><text text-anchor="middle" transform="translate(402.5,72.5)" font-family="sans-serif" font-size="11px" fill="#666">70 a 74</text><text text-anchor="middle" transform="translate(402.5,46.5)" font-family="sans-serif" font-size="11px" fill="#666">75 a 79</text><text text-anchor="middle" transform="translate(402.5,20.5)" font-family="sans-serif" font-size="11px" fill="#666">80 o més</text></g><g class="mark-group role-scope" role="graphics-object" aria-roledescription="group mark container"><g transform="translate(0,0)"><path class="background" aria-hidden="true" d="M0,0h0v400h0Z"/><g><g class="mark-group role-axis" role="graphics-symbol" aria-roledescription="axis" aria-label="X-axis titled 'DONES' for a linear scale with values from 0k to 650k"><g transform="translate(0.5,400.5)"><path class="background" aria-hidden="true" d="M0,0h0v0h0Z" pointer-events="none"/><g><g class="mark-rule role-axis-tick" pointer-events="none"><line transform="translate(375,0)" x2="0" y2="5" stroke="#888" stroke-width="1" opacity="1"/><line transform="translate(317,0)" x2="0" y2="5" stroke="#888" stroke-width="1" opacity="1"/><line transform="translate(260,0)" x2="0" y2="5" stroke="#888" stroke-width="1" opacity="1"/><line transform="translate(202,0)" x2="0" y2="5" stroke="#888" stroke-width="1" opacity="1"/><line transform="translate(144,0)" x2="0" y2="5" stroke="#888" stroke-width="1" opacity="1"/><line transform="translate(87,0)" x2="0" y2="5" stroke="#888" stroke-width="1" opacity="1"/><line transform="translate(29,0)" x2="0" y2="5" stroke="#888" stroke-width="1" opacity="1"/></g><g class="mark-text role-axis-label" pointer-events="none"><text text-anchor="middle" transform="translate(375,15)" font-family="sans-serif" font-size="10px" fill="#666" opacity="1">0</text><text text-anchor="middle" transform="translate(317.3076923076923,15)" font-family="sans-serif" font-size="10px" fill="#666" opacity="1">100k</text><text text-anchor="middle" transform="translate(259.6153846153846,15)" font-family="sans-serif" font-size="10px" fill="#666" opacity="1">200k</text><text text-anchor="middle" transform="translate(201.9230769230769,15)" font-family="sans-serif" font-size="10px" fill="#666" opacity="1">300k</text><text text-anchor="middle" transform="translate(144.23076923076923,15)" font-family="sans-serif" font-size="10px" fill="#666" opacity="1">400k</text><text text-anchor="middle" transform="translate(86.53846153846152,15)" font-family="sans-serif" font-size="10px" fill="#666" opacity="1">500k</text><text text-anchor="middle" transform="translate(28.846153846153825,15)" font-family="sans-serif" font-size="10px" fill="#666" opacity="1">600k</text></g><g class="mark-rule role-axis-domain" pointer-events="none"><line transform="translate(375,0)" x2="-375" y2="0" stroke="#888" stroke-width="1" opacity="1"/></g><g class="mark-text role-axis-title" pointer-events="none"><text text-anchor="middle" transform="translate(187.5,51)" font-family="sans-serif" font-size="12px" font-weight="bold" fill="#222222" opacity="1">DONES</text></g></g><path class="foreground" aria-hidden="true" d="" pointer-events="none" display="none"/></g></g><g class="mark-rect role-mark" role="graphics-symbol" aria-roledescription="rect mark container"><path d="M45.54865384615383,370h329.45134615384615v23h-329.45134615384615Z" fill="#eaeaea"/><path d="M263.50384615384615,344h111.49615384615385v23h-111.49615384615385Z" fill="#eaeaea"/><path d="M264.7575,318h110.2425v23h-110.2425Z" fill="#eaeaea"/><path d="M250.35923076923078,292h124.64076923076922v23h-124.64076923076922Z" fill="#eaeaea"/><path d="M239.36307692307693,266h135.63692307692307v23h-135.63692307692307Z" fill="#eaeaea"/><path d="M216.64153846153846,240h158.35846153846154v23h-158.35846153846154Z" fill="#eaeaea"/><path d="M187.12442307692305,214h187.87557692307695v23h-187.87557692307695Z" fill="#eaeaea"/><path d="M194.27249999999998,188h180.72750000000002v23h-180.72750000000002Z" fill="#eaeaea"/><path d="M210.5844230769231,162h164.4155769230769v23h-164.4155769230769Z" fill="#eaeaea"/><path d="M224.4623076923077,136h150.5376923076923v23h-150.5376923076923Z" fill="#eaeaea"/><path d="M240.08480769230766,110h134.91519230769234v23h-134.91519230769234Z" fill="#eaeaea"/><path d="M257.6532692307692,84h117.34673076923082v23h-117.34673076923082Z" fill="#eaeaea"/><path d="M263.7853846153846,58h111.2146153846154v23h-111.2146153846154Z" fill="#eaeaea"/><path d="M285.79615384615386,32h89.20384615384614v23h-89.20384615384614Z" fill="#eaeaea"/><path d="M211.14807692307693,6h163.85192307692307v23h-163.85192307692307Z" fill="#eaeaea"/></g><g class="mark-rect role-mark" role="graphics-symbol" aria-roledescription="rect mark container"><path d="M374.99596153846153,370h0.004038461538470983v23h-0.004038461538470983Z" fill="#BC3A5C"/><path d="M372.19384615384615,344h2.8061538461538476v23h-2.8061538461538476Z" fill="#BC3A5C"/><path d="M359.93192307692306,318h15.068076923076944v23h-15.068076923076944Z" fill="#BC3A5C"/><path d="M355.94826923076926,292h19.051730769230744v23h-19.051730769230744Z" fill="#BC3A5C"/><path d="M356.19865384615383,266h18.80134615384617v23h-18.80134615384617Z" fill="#BC3A5C"/><path d="M352.6667307692308,240h22.33326923076919v23h-22.33326923076919Z" fill="#BC3A5C"/><path d="M345.47826923076923,214h29.52173076923077v23h-29.52173076923077Z" fill="#BC3A5C"/><path d="M344.9567307692308,188h30.043269230769226v23h-30.043269230769226Z" fill="#BC3A5C"/><path d="M345.43384615384616,162h29.56615384615384v23h-29.56615384615384Z" fill="#BC3A5C"/><path d="M349.4065384615385,136h25.593461538461497v23h-25.593461538461497Z" fill="#BC3A5C"/><path d="M288.2775,110h86.72250000000003v23h-86.72250000000003Z" fill="#BC3A5C"/><path d="M329.8401923076923,84h45.15980769230771v23h-45.15980769230771Z" fill="#BC3A5C"/><path d="M336.4932692307692,58h38.506730769230785v23h-38.506730769230785Z" fill="#BC3A5C"/><path d="M298.875,32h76.125v23h-76.125Z" fill="#BC3A5C"/><path d="M224.85115384615384,6h150.14884615384616v23h-150.14884615384616Z" fill="#BC3A5C"/></g><g class="mark-rect role-mark" role="graphics-symbol" aria-roledescription="rect mark container"><path d="M374.99884615384616,370h0.0011538461538407319v23h-0.0011538461538407319Z" fill="#540032"/><path d="M373.65865384615387,344h1.341346153846132v23h-1.341346153846132Z" fill="#540032"/><path d="M367.58076923076925,318h7.419230769230751v23h-7.419230769230751Z" fill="#540032"/><path d="M365.6301923076923,292h9.369807692307688v23h-9.369807692307688Z" fill="#540032"/><path d="M366.2965384615385,266h8.70346153846151v23h-8.70346153846151Z" fill="#540032"/><path d="M364.80346153846153,240h10.196538461538466v23h-10.196538461538466Z" fill="#540032"/><path d="M361.3978846153846,214h13.602115384615388v23h-13.602115384615388Z" fill="#540032"/><path d="M360.8301923076923,188h14.1698076923077v23h-14.1698076923077Z" fill="#540032"/><path d="M360.8469230769231,162h14.153076923076924v23h-14.153076923076924Z" fill="#540032"/><path d="M359.71153846153845,136h15.288461538461547v23h-15.288461538461547Z" fill="#540032"/><path d="M362.10115384615386,110h12.898846153846137v23h-12.898846153846137Z" fill="#540032"/><path d="M369.4205769230769,84h5.579423076923092v23h-5.579423076923092Z" fill="#540032"/><path d="M369.8423076923077,58h5.157692307692287v23h-5.157692307692287Z" fill="#540032"/><path d="M366.0565384615385,32h8.94346153846152v23h-8.94346153846152Z" fill="#540032"/><path d="M261.6744230769231,6h113.32557692307688v23h-113.32557692307688Z" fill="#540032"/></g><g class="mark-symbol role-mark" role="graphics-symbol" aria-roledescription="symbol mark container"><path transform="translate(292.6371634615385,381.5)" d="M1.224744871391589,0A1.224744871391589,1.224744871391589,0,1,1,-1.224744871391589,0A1.224744871391589,1.224744871391589,0,1,1,1.224744871391589,0" fill="white" fill-opacity="0.5"/><path transform="translate(347.1259615384615,355.5)" d="M1.224744871391589,0A1.224744871391589,1.224744871391589,0,1,1,-1.224744871391589,0A1.224744871391589,1.224744871391589,0,1,1,1.224744871391589,0" fill="white" fill-opacity="0.5"/><path transform="translate(347.439375,329.5)" d="M1.224744871391589,0A1.224744871391589,1.224744871391589,0,1,1,-1.224744871391589,0A1.224744871391589,1.224744871391589,0,1,1,1.224744871391589,0" fill="white" fill-opacity="0.5"/><path transform="translate(343.83980769230766,303.5)" d="M1.224744871391589,0A1.224744871391589,1.224744871391589,0,1,1,-1.224744871391589,0A1.224744871391589,1.224744871391589,0,1,1,1.224744871391589,0" fill="white" fill-opacity="0.5"/><path transform="translate(341.09076923076924,277.5)" d="M1.224744871391589,0A1.224744871391589,1.224744871391589,0,1,1,-1.224744871391589,0A1.224744871391589,1.224744871391589,0,1,1,1.224744871391589,0" fill="white" fill-opacity="0.5"/><path transform="translate(335.41038461538466,251.5)" d="M1.224744871391589,0A1.224744871391589,1.224744871391589,0,1,1,-1.224744871391589,0A1.224744871391589,1.224744871391589,0,1,1,1.224744871391589,0" fill="white" fill-opacity="0.5"/><path transform="translate(328.03110576923075,225.5)" d="M1.224744871391589,0A1.224744871391589,1.224744871391589,0,1,1,-1.224744871391589,0A1.224744871391589,1.224744871391589,0,1,1,1.224744871391589,0" fill="white" fill-opacity="0.5"/><path transform="translate(329.818125,199.5)" d="M1.224744871391589,0A1.224744871391589,1.224744871391589,0,1,1,-1.224744871391589,0A1.224744871391589,1.224744871391589,0,1,1,1.224744871391589,0" fill="white" fill-opacity="0.5"/><path transform="translate(333.89610576923076,173.5)" d="M1.224744871391589,0A1.224744871391589,1.224744871391589,0,1,1,-1.224744871391589,0A1.224744871391589,1.224744871391589,0,1,1,1.224744871391589,0" fill="white" fill-opacity="0.5"/><path transform="translate(337.36557692307696,147.5)" d="M1.224744871391589,0A1.224744871391589,1.224744871391589,0,1,1,-1.224744871391589,0A1.224744871391589,1.224744871391589,0,1,1,1.224744871391589,0" fill="white" fill-opacity="0.5"/><path transform="translate(341.27120192307694,121.5)" d="M1.224744871391589,0A1.224744871391589,1.224744871391589,0,1,1,-1.224744871391589,0A1.224744871391589,1.224744871391589,0,1,1,1.224744871391589,0" fill="white" fill-opacity="0.5"/><path transform="translate(345.6633173076923,95.5)" d="M1.224744871391589,0A1.224744871391589,1.224744871391589,0,1,1,-1.224744871391589,0A1.224744871391589,1.224744871391589,0,1,1,1.224744871391589,0" fill="white" fill-opacity="0.5"/><path transform="translate(347.19634615384615,69.5)" d="M1.224744871391589,0A1.224744871391589,1.224744871391589,0,1,1,-1.224744871391589,0A1.224744871391589,1.224744871391589,0,1,1,1.224744871391589,0" fill="white" fill-opacity="0.5"/><path transform="translate(352.69903846153846,43.5)" d="M1.224744871391589,0A1.224744871391589,1.224744871391589,0,1,1,-1.224744871391589,0A1.224744871391589,1.224744871391589,0,1,1,1.224744871391589,0" fill="white" fill-opacity="0.5"/><path transform="translate(334.0370192307692,17.5)" d="M1.224744871391589,0A1.224744871391589,1.224744871391589,0,1,1,-1.224744871391589,0A1.224744871391589,1.224744871391589,0,1,1,1.224744871391589,0" fill="white" fill-opacity="0.5"/></g><g class="mark-symbol role-mark" role="graphics-symbol" aria-roledescription="symbol mark container"><path transform="translate(210.27432692307693,381.5)" d="M1.224744871391589,0A1.224744871391589,1.224744871391589,0,1,1,-1.224744871391589,0A1.224744871391589,1.224744871391589,0,1,1,1.224744871391589,0" fill="white" fill-opacity="0.5"/><path transform="translate(319.2519230769231,355.5)" d="M1.224744871391589,0A1.224744871391589,1.224744871391589,0,1,1,-1.224744871391589,0A1.224744871391589,1.224744871391589,0,1,1,1.224744871391589,0" fill="white" fill-opacity="0.5"/><path transform="translate(319.87875,329.5)" d="M1.224744871391589,0A1.224744871391589,1.224744871391589,0,1,1,-1.224744871391589,0A1.224744871391589,1.224744871391589,0,1,1,1.224744871391589,0" fill="white" fill-opacity="0.5"/><path transform="translate(312.6796153846154,303.5)" d="M1.224744871391589,0A1.224744871391589,1.224744871391589,0,1,1,-1.224744871391589,0A1.224744871391589,1.224744871391589,0,1,1,1.224744871391589,0" fill="white" fill-opacity="0.5"/><path transform="translate(307.1815384615385,277.5)" d="M1.224744871391589,0A1.224744871391589,1.224744871391589,0,1,1,-1.224744871391589,0A1.224744871391589,1.224744871391589,0,1,1,1.224744871391589,0" fill="white" fill-opacity="0.5"/><path transform="translate(295.82076923076926,251.5)" d="M1.224744871391589,0A1.224744871391589,1.224744871391589,0,1,1,-1.224744871391589,0A1.224744871391589,1.224744871391589,0,1,1,1.224744871391589,0" fill="white" fill-opacity="0.5"/><path transform="translate(281.06221153846155,225.5)" d="M1.224744871391589,0A1.224744871391589,1.224744871391589,0,1,1,-1.224744871391589,0A1.224744871391589,1.224744871391589,0,1,1,1.224744871391589,0" fill="white" fill-opacity="0.5"/><path transform="translate(284.63625,199.5)" d="M1.224744871391589,0A1.224744871391589,1.224744871391589,0,1,1,-1.224744871391589,0A1.224744871391589,1.224744871391589,0,1,1,1.224744871391589,0" fill="white" fill-opacity="0.5"/><path transform="translate(292.7922115384615,173.5)" d="M1.224744871391589,0A1.224744871391589,1.224744871391589,0,1,1,-1.224744871391589,0A1.224744871391589,1.224744871391589,0,1,1,1.224744871391589,0" fill="white" fill-opacity="0.5"/><path transform="translate(299.73115384615386,147.5)" d="M1.224744871391589,0A1.224744871391589,1.224744871391589,0,1,1,-1.224744871391589,0A1.224744871391589,1.224744871391589,0,1,1,1.224744871391589,0" fill="white" fill-opacity="0.5"/><path transform="translate(307.54240384615383,121.5)" d="M1.224744871391589,0A1.224744871391589,1.224744871391589,0,1,1,-1.224744871391589,0A1.224744871391589,1.224744871391589,0,1,1,1.224744871391589,0" fill="white" fill-opacity="0.5"/><path transform="translate(316.3266346153846,95.5)" d="M1.224744871391589,0A1.224744871391589,1.224744871391589,0,1,1,-1.224744871391589,0A1.224744871391589,1.224744871391589,0,1,1,1.224744871391589,0" fill="white" fill-opacity="0.5"/><path transform="translate(319.3926923076923,69.5)" d="M1.224744871391589,0A1.224744871391589,1.224744871391589,0,1,1,-1.224744871391589,0A1.224744871391589,1.224744871391589,0,1,1,1.224744871391589,0" fill="white" fill-opacity="0.5"/><path transform="translate(330.3980769230769,43.5)" d="M1.224744871391589,0A1.224744871391589,1.224744871391589,0,1,1,-1.224744871391589,0A1.224744871391589,1.224744871391589,0,1,1,1.224744871391589,0" fill="white" fill-opacity="0.5"/><path transform="translate(293.07403846153846,17.5)" d="M1.224744871391589,0A1.224744871391589,1.224744871391589,0,1,1,-1.224744871391589,0A1.224744871391589,1.224744871391589,0,1,1,1.224744871391589,0" fill="white" fill-opacity="0.5"/></g><g class="mark-symbol role-mark" role="graphics-symbol" aria-roledescription="symbol mark container"><path transform="translate(127.91149038461539,381.5)" d="M1.224744871391589,0A1.224744871391589,1.224744871391589,0,1,1,-1.224744871391589,0A1.224744871391589,1.224744871391589,0,1,1,1.224744871391589,0" fill="white" fill-opacity="0.5"/><path transform="translate(291.37788461538463,355.5)" d="M1.224744871391589,0A1.224744871391589,1.224744871391589,0,1,1,-1.224744871391589,0A1.224744871391589,1.224744871391589,0,1,1,1.224744871391589,0" fill="white" fill-opacity="0.5"/><path transform="translate(292.318125,329.5)" d="M1.224744871391589,0A1.224744871391589,1.224744871391589,0,1,1,-1.224744871391589,0A1.224744871391589,1.224744871391589,0,1,1,1.224744871391589,0" fill="white" fill-opacity="0.5"/><path transform="translate(281.5194230769231,303.5)" d="M1.224744871391589,0A1.224744871391589,1.224744871391589,0,1,1,-1.224744871391589,0A1.224744871391589,1.224744871391589,0,1,1,1.224744871391589,0" fill="white" fill-opacity="0.5"/><path transform="translate(273.27230769230766,277.5)" d="M1.224744871391589,0A1.224744871391589,1.224744871391589,0,1,1,-1.224744871391589,0A1.224744871391589,1.224744871391589,0,1,1,1.224744871391589,0" fill="white" fill-opacity="0.5"/><path transform="translate(256.23115384615386,251.5)" d="M1.224744871391589,0A1.224744871391589,1.224744871391589,0,1,1,-1.224744871391589,0A1.224744871391589,1.224744871391589,0,1,1,1.224744871391589,0" fill="white" fill-opacity="0.5"/><path transform="translate(234.0933173076923,225.5)" d="M1.224744871391589,0A1.224744871391589,1.224744871391589,0,1,1,-1.224744871391589,0A1.224744871391589,1.224744871391589,0,1,1,1.224744871391589,0" fill="white" fill-opacity="0.5"/><path transform="translate(239.45437499999997,199.5)" d="M1.224744871391589,0A1.224744871391589,1.224744871391589,0,1,1,-1.224744871391589,0A1.224744871391589,1.224744871391589,0,1,1,1.224744871391589,0" fill="white" fill-opacity="0.5"/><path transform="translate(251.68831730769227,173.5)" d="M1.224744871391589,0A1.224744871391589,1.224744871391589,0,1,1,-1.224744871391589,0A1.224744871391589,1.224744871391589,0,1,1,1.224744871391589,0" fill="white" fill-opacity="0.5"/><path transform="translate(262.09673076923076,147.5)" d="M1.224744871391589,0A1.224744871391589,1.224744871391589,0,1,1,-1.224744871391589,0A1.224744871391589,1.224744871391589,0,1,1,1.224744871391589,0" fill="white" fill-opacity="0.5"/><path transform="translate(273.8136057692308,121.5)" d="M1.224744871391589,0A1.224744871391589,1.224744871391589,0,1,1,-1.224744871391589,0A1.224744871391589,1.224744871391589,0,1,1,1.224744871391589,0" fill="white" fill-opacity="0.5"/><path transform="translate(286.98995192307694,95.5)" d="M1.224744871391589,0A1.224744871391589,1.224744871391589,0,1,1,-1.224744871391589,0A1.224744871391589,1.224744871391589,0,1,1,1.224744871391589,0" fill="white" fill-opacity="0.5"/><path transform="translate(291.58903846153845,69.5)" d="M1.224744871391589,0A1.224744871391589,1.224744871391589,0,1,1,-1.224744871391589,0A1.224744871391589,1.224744871391589,0,1,1,1.224744871391589,0" fill="white" fill-opacity="0.5"/><path transform="translate(308.0971153846154,43.5)" d="M1.224744871391589,0A1.224744871391589,1.224744871391589,0,1,1,-1.224744871391589,0A1.224744871391589,1.224744871391589,0,1,1,1.224744871391589,0" fill="white" fill-opacity="0.5"/><path transform="translate(252.1110576923077,17.5)" d="M1.224744871391589,0A1.224744871391589,1.224744871391589,0,1,1,-1.224744871391589,0A1.224744871391589,1.224744871391589,0,1,1,1.224744871391589,0" fill="white" fill-opacity="0.5"/></g></g><path class="foreground" aria-hidden="true" d="" display="none"/></g></g><g class="mark-group role-scope" role="graphics-object" aria-roledescription="group mark container"><g transform="translate(430,0)"><path class="background" aria-hidden="true" d="M0,0h0v400h0Z"/><g><g class="mark-group role-axis" role="graphics-symbol" aria-roledescription="axis" aria-label="X-axis titled 'HOMES' for a linear scale with values from 0k to 650k"><g transform="translate(0.5,400.5)"><path class="background" aria-hidden="true" d="M0,0h0v0h0Z" pointer-events="none"/><g><g class="mark-rule role-axis-tick" pointer-events="none"><line transform="translate(0,0)" x2="0" y2="5" stroke="#888" stroke-width="1" opacity="1"/><line transform="translate(58,0)" x2="0" y2="5" stroke="#888" stroke-width="1" opacity="1"/><line transform="translate(115,0)" x2="0" y2="5" stroke="#888" stroke-width="1" opacity="1"/><line transform="translate(173,0)" x2="0" y2="5" stroke="#888" stroke-width="1" opacity="1"/><line transform="translate(231,0)" x2="0" y2="5" stroke="#888" stroke-width="1" opacity="1"/><line transform="translate(288,0)" x2="0" y2="5" stroke="#888" stroke-width="1" opacity="1"/><line transform="translate(346,0)" x2="0" y2="5" stroke="#888" stroke-width="1" opacity="1"/></g><g class="mark-text role-axis-label" pointer-events="none"><text text-anchor="middle" transform="translate(0,15)" font-family="sans-serif" font-size="10px" fill="#666" opacity="1">0</text><text text-anchor="middle" transform="translate(57.69230769230769,15)" font-family="sans-serif" font-size="10px" fill="#666" opacity="1">100k</text><text text-anchor="middle" transform="translate(115.38461538461539,15)" font-family="sans-serif" font-size="10px" fill="#666" opacity="1">200k</text><text text-anchor="middle" transform="translate(173.0769230769231,15)" font-family="sans-serif" font-size="10px" fill="#666" opacity="1">300k</text><text text-anchor="middle" transform="translate(230.76923076923077,15)" font-family="sans-serif" font-size="10px" fill="#666" opacity="1">400k</text><text text-anchor="middle" transform="translate(288.46153846153845,15)" font-family="sans-serif" font-size="10px" fill="#666" opacity="1">500k</text><text text-anchor="middle" transform="translate(346.1538461538462,15)" font-family="sans-serif" font-size="10px" fill="#666" opacity="1">600k</text></g><g class="mark-rule role-axis-domain" pointer-events="none"><line transform="translate(0,0)" x2="375" y2="0" stroke="#888" stroke-width="1" opacity="1"/></g><g class="mark-text role-axis-title" pointer-events="none"><text text-anchor="middle" transform="translate(187.5,51)" font-family="sans-serif" font-size="12px" font-weight="bold" fill="#222222" opacity="1">HOMES</text></g></g><path class="foreground" aria-hidden="true" d="" pointer-events="none" display="none"/></g></g><g class="mark-rect role-mark" role="graphics-symbol" aria-roledescription="rect mark container"><path d="M0,370h350.74961538461537v23h-350.74961538461537Z" fill="#eaeaea"/><path d="M0,344h121.45788461538461v23h-121.45788461538461Z" fill="#eaeaea"/><path d="M0,318h118.27384615384615v23h-118.27384615384615Z" fill="#eaeaea"/><path d="M0,292h127.56346153846154v23h-127.56346153846154Z" fill="#eaeaea"/><path d="M0,266h133.2698076923077v23h-133.2698076923077Z" fill="#eaeaea"/><path d="M0,240h156.28615384615384v23h-156.28615384615384Z" fill="#eaeaea"/><path d="M0,214h193.01365384615386v23h-193.01365384615386Z" fill="#eaeaea"/><path d="M0,188h186.94096153846152v23h-186.94096153846152Z" fill="#eaeaea"/><path d="M0,162h165.90346153846153v23h-165.90346153846153Z" fill="#eaeaea"/><path d="M0,136h144.5348076923077v23h-144.5348076923077Z" fill="#eaeaea"/><path d="M0,110h124.12096153846153v23h-124.12096153846153Z" fill="#eaeaea"/><path d="M0,84h103.90153846153846v23h-103.90153846153846Z" fill="#eaeaea"/><path d="M0,58h93.9046153846154v23h-93.9046153846154Z" fill="#eaeaea"/><path d="M0,32h70.9125v23h-70.9125Z" fill="#eaeaea"/><path d="M0,6h94.36903846153847v23h-94.36903846153847Z" fill="#eaeaea"/></g><g class="mark-rect role-mark" role="graphics-symbol" aria-roledescription="rect mark container"><path d="M0,370h0.0034615384615384616v23h-0.0034615384615384616Z" fill="#BC3A5C"/><path d="M0,344h1.2848076923076923v23h-1.2848076923076923Z" fill="#BC3A5C"/><path d="M0,318h5.791153846153846v23h-5.791153846153846Z" fill="#BC3A5C"/><path d="M0,292h7.973653846153846v23h-7.973653846153846Z" fill="#BC3A5C"/><path d="M0,266h8.837307692307693v23h-8.837307692307693Z" fill="#BC3A5C"/><path d="M0,240h10.626923076923077v23h-10.626923076923077Z" fill="#BC3A5C"/><path d="M0,214h14.222884615384615v23h-14.222884615384615Z" fill="#BC3A5C"/><path d="M0,188h14.597307692307693v23h-14.597307692307693Z" fill="#BC3A5C"/><path d="M0,162h13.733653846153846v23h-13.733653846153846Z" fill="#BC3A5C"/><path d="M0,136h13.262307692307692v23h-13.262307692307692Z" fill="#BC3A5C"/><path d="M0,110h82.5075v23h-82.5075Z" fill="#BC3A5C"/><path d="M0,84h44.92730769230769v23h-44.92730769230769Z" fill="#BC3A5C"/><path d="M0,58h29.904807692307692v23h-29.904807692307692Z" fill="#BC3A5C"/><path d="M0,32h60.70442307692307v23h-60.70442307692307Z" fill="#BC3A5C"/><path d="M0,6h88.30730769230769v23h-88.30730769230769Z" fill="#BC3A5C"/></g><g class="mark-rect role-mark" role="graphics-symbol" aria-roledescription="rect mark container"><path d="M0,370h0.001153846153846154v23h-0.001153846153846154Z" fill="#540032"/><path d="M0,344h0.6201923076923077v23h-0.6201923076923077Z" fill="#540032"/><path d="M0,318h2.7617307692307693v23h-2.7617307692307693Z" fill="#540032"/><path d="M0,292h3.7800000000000002v23h-3.7800000000000002Z" fill="#540032"/><path d="M0,266h3.766730769230769v23h-3.766730769230769Z" fill="#540032"/><path d="M0,240h4.039615384615384v23h-4.039615384615384Z" fill="#540032"/><path d="M0,214h5.0325v23h-5.0325Z" fill="#540032"/><path d="M0,188h5.301923076923077v23h-5.301923076923077Z" fill="#540032"/><path d="M0,162h5.6365384615384615v23h-5.6365384615384615Z" fill="#540032"/><path d="M0,136h6.702115384615384v23h-6.702115384615384Z" fill="#540032"/><path d="M0,110h6.9225v23h-6.9225Z" fill="#540032"/><path d="M0,84h4.744038461538461v23h-4.744038461538461Z" fill="#540032"/><path d="M0,58h4.368461538461538v23h-4.368461538461538Z" fill="#540032"/><path d="M0,32h5.349807692307692v23h-5.349807692307692Z" fill="#540032"/><path d="M0,6h64.27903846153846v23h-64.27903846153846Z" fill="#540032"/></g><g class="mark-symbol role-mark" role="graphics-symbol" aria-roledescription="symbol mark container"><path transform="translate(87.68740384615384,381.5)" d="M1.224744871391589,0A1.224744871391589,1.224744871391589,0,1,1,-1.224744871391589,0A1.224744871391589,1.224744871391589,0,1,1,1.224744871391589,0" fill="white" fill-opacity="0.5"/><path transform="translate(30.364471153846154,355.5)" d="M1.224744871391589,0A1.224744871391589,1.224744871391589,0,1,1,-1.224744871391589,0A1.224744871391589,1.224744871391589,0,1,1,1.224744871391589,0" fill="white" fill-opacity="0.5"/><path transform="translate(29.568461538461538,329.5)" d="M1.224744871391589,0A1.224744871391589,1.224744871391589,0,1,1,-1.224744871391589,0A1.224744871391589,1.224744871391589,0,1,1,1.224744871391589,0" fill="white" fill-opacity="0.5"/><path transform="translate(31.890865384615385,303.5)" d="M1.224744871391589,0A1.224744871391589,1.224744871391589,0,1,1,-1.224744871391589,0A1.224744871391589,1.224744871391589,0,1,1,1.224744871391589,0" fill="white" fill-opacity="0.5"/><path transform="translate(33.31745192307692,277.5)" d="M1.224744871391589,0A1.224744871391589,1.224744871391589,0,1,1,-1.224744871391589,0A1.224744871391589,1.224744871391589,0,1,1,1.224744871391589,0" fill="white" fill-opacity="0.5"/><path transform="translate(39.07153846153846,251.5)" d="M1.224744871391589,0A1.224744871391589,1.224744871391589,0,1,1,-1.224744871391589,0A1.224744871391589,1.224744871391589,0,1,1,1.224744871391589,0" fill="white" fill-opacity="0.5"/><path transform="translate(48.253413461538464,225.5)" d="M1.224744871391589,0A1.224744871391589,1.224744871391589,0,1,1,-1.224744871391589,0A1.224744871391589,1.224744871391589,0,1,1,1.224744871391589,0" fill="white" fill-opacity="0.5"/><path transform="translate(46.73524038461538,199.5)" d="M1.224744871391589,0A1.224744871391589,1.224744871391589,0,1,1,-1.224744871391589,0A1.224744871391589,1.224744871391589,0,1,1,1.224744871391589,0" fill="white" fill-opacity="0.5"/><path transform="translate(41.47586538461538,173.5)" d="M1.224744871391589,0A1.224744871391589,1.224744871391589,0,1,1,-1.224744871391589,0A1.224744871391589,1.224744871391589,0,1,1,1.224744871391589,0" fill="white" fill-opacity="0.5"/><path transform="translate(36.13370192307693,147.5)" d="M1.224744871391589,0A1.224744871391589,1.224744871391589,0,1,1,-1.224744871391589,0A1.224744871391589,1.224744871391589,0,1,1,1.224744871391589,0" fill="white" fill-opacity="0.5"/><path transform="translate(31.030240384615382,121.5)" d="M1.224744871391589,0A1.224744871391589,1.224744871391589,0,1,1,-1.224744871391589,0A1.224744871391589,1.224744871391589,0,1,1,1.224744871391589,0" fill="white" fill-opacity="0.5"/><path transform="translate(25.975384615384616,95.5)" d="M1.224744871391589,0A1.224744871391589,1.224744871391589,0,1,1,-1.224744871391589,0A1.224744871391589,1.224744871391589,0,1,1,1.224744871391589,0" fill="white" fill-opacity="0.5"/><path transform="translate(23.47615384615385,69.5)" d="M1.224744871391589,0A1.224744871391589,1.224744871391589,0,1,1,-1.224744871391589,0A1.224744871391589,1.224744871391589,0,1,1,1.224744871391589,0" fill="white" fill-opacity="0.5"/><path transform="translate(17.728125,43.5)" d="M1.224744871391589,0A1.224744871391589,1.224744871391589,0,1,1,-1.224744871391589,0A1.224744871391589,1.224744871391589,0,1,1,1.224744871391589,0" fill="white" fill-opacity="0.5"/><path transform="translate(23.592259615384616,17.5)" d="M1.224744871391589,0A1.224744871391589,1.224744871391589,0,1,1,-1.224744871391589,0A1.224744871391589,1.224744871391589,0,1,1,1.224744871391589,0" fill="white" fill-opacity="0.5"/></g><g class="mark-symbol role-mark" role="graphics-symbol" aria-roledescription="symbol mark container"><path transform="translate(175.37480769230768,381.5)" d="M1.224744871391589,0A1.224744871391589,1.224744871391589,0,1,1,-1.224744871391589,0A1.224744871391589,1.224744871391589,0,1,1,1.224744871391589,0" fill="white" fill-opacity="0.5"/><path transform="translate(60.72894230769231,355.5)" d="M1.224744871391589,0A1.224744871391589,1.224744871391589,0,1,1,-1.224744871391589,0A1.224744871391589,1.224744871391589,0,1,1,1.224744871391589,0" fill="white" fill-opacity="0.5"/><path transform="translate(59.136923076923075,329.5)" d="M1.224744871391589,0A1.224744871391589,1.224744871391589,0,1,1,-1.224744871391589,0A1.224744871391589,1.224744871391589,0,1,1,1.224744871391589,0" fill="white" fill-opacity="0.5"/><path transform="translate(63.78173076923077,303.5)" d="M1.224744871391589,0A1.224744871391589,1.224744871391589,0,1,1,-1.224744871391589,0A1.224744871391589,1.224744871391589,0,1,1,1.224744871391589,0" fill="white" fill-opacity="0.5"/><path transform="translate(66.63490384615385,277.5)" d="M1.224744871391589,0A1.224744871391589,1.224744871391589,0,1,1,-1.224744871391589,0A1.224744871391589,1.224744871391589,0,1,1,1.224744871391589,0" fill="white" fill-opacity="0.5"/><path transform="translate(78.14307692307692,251.5)" d="M1.224744871391589,0A1.224744871391589,1.224744871391589,0,1,1,-1.224744871391589,0A1.224744871391589,1.224744871391589,0,1,1,1.224744871391589,0" fill="white" fill-opacity="0.5"/><path transform="translate(96.50682692307693,225.5)" d="M1.224744871391589,0A1.224744871391589,1.224744871391589,0,1,1,-1.224744871391589,0A1.224744871391589,1.224744871391589,0,1,1,1.224744871391589,0" fill="white" fill-opacity="0.5"/><path transform="translate(93.47048076923076,199.5)" d="M1.224744871391589,0A1.224744871391589,1.224744871391589,0,1,1,-1.224744871391589,0A1.224744871391589,1.224744871391589,0,1,1,1.224744871391589,0" fill="white" fill-opacity="0.5"/><path transform="translate(82.95173076923076,173.5)" d="M1.224744871391589,0A1.224744871391589,1.224744871391589,0,1,1,-1.224744871391589,0A1.224744871391589,1.224744871391589,0,1,1,1.224744871391589,0" fill="white" fill-opacity="0.5"/><path transform="translate(72.26740384615385,147.5)" d="M1.224744871391589,0A1.224744871391589,1.224744871391589,0,1,1,-1.224744871391589,0A1.224744871391589,1.224744871391589,0,1,1,1.224744871391589,0" fill="white" fill-opacity="0.5"/><path transform="translate(62.060480769230765,121.5)" d="M1.224744871391589,0A1.224744871391589,1.224744871391589,0,1,1,-1.224744871391589,0A1.224744871391589,1.224744871391589,0,1,1,1.224744871391589,0" fill="white" fill-opacity="0.5"/><path transform="translate(51.95076923076923,95.5)" d="M1.224744871391589,0A1.224744871391589,1.224744871391589,0,1,1,-1.224744871391589,0A1.224744871391589,1.224744871391589,0,1,1,1.224744871391589,0" fill="white" fill-opacity="0.5"/><path transform="translate(46.9523076923077,69.5)" d="M1.224744871391589,0A1.224744871391589,1.224744871391589,0,1,1,-1.224744871391589,0A1.224744871391589,1.224744871391589,0,1,1,1.224744871391589,0" fill="white" fill-opacity="0.5"/><path transform="translate(35.45625,43.5)" d="M1.224744871391589,0A1.224744871391589,1.224744871391589,0,1,1,-1.224744871391589,0A1.224744871391589,1.224744871391589,0,1,1,1.224744871391589,0" fill="white" fill-opacity="0.5"/><path transform="translate(47.18451923076923,17.5)" d="M1.224744871391589,0A1.224744871391589,1.224744871391589,0,1,1,-1.224744871391589,0A1.224744871391589,1.224744871391589,0,1,1,1.224744871391589,0" fill="white" fill-opacity="0.5"/></g><g class="mark-symbol role-mark" role="graphics-symbol" aria-roledescription="symbol mark container"><path transform="translate(263.06221153846155,381.5)" d="M1.224744871391589,0A1.224744871391589,1.224744871391589,0,1,1,-1.224744871391589,0A1.224744871391589,1.224744871391589,0,1,1,1.224744871391589,0" fill="white" fill-opacity="0.5"/><path transform="translate(91.09341346153846,355.5)" d="M1.224744871391589,0A1.224744871391589,1.224744871391589,0,1,1,-1.224744871391589,0A1.224744871391589,1.224744871391589,0,1,1,1.224744871391589,0" fill="white" fill-opacity="0.5"/><path transform="translate(88.70538461538462,329.5)" d="M1.224744871391589,0A1.224744871391589,1.224744871391589,0,1,1,-1.224744871391589,0A1.224744871391589,1.224744871391589,0,1,1,1.224744871391589,0" fill="white" fill-opacity="0.5"/><path transform="translate(95.67259615384616,303.5)" d="M1.224744871391589,0A1.224744871391589,1.224744871391589,0,1,1,-1.224744871391589,0A1.224744871391589,1.224744871391589,0,1,1,1.224744871391589,0" fill="white" fill-opacity="0.5"/><path transform="translate(99.95235576923078,277.5)" d="M1.224744871391589,0A1.224744871391589,1.224744871391589,0,1,1,-1.224744871391589,0A1.224744871391589,1.224744871391589,0,1,1,1.224744871391589,0" fill="white" fill-opacity="0.5"/><path transform="translate(117.21461538461539,251.5)" d="M1.224744871391589,0A1.224744871391589,1.224744871391589,0,1,1,-1.224744871391589,0A1.224744871391589,1.224744871391589,0,1,1,1.224744871391589,0" fill="white" fill-opacity="0.5"/><path transform="translate(144.7602403846154,225.5)" d="M1.224744871391589,0A1.224744871391589,1.224744871391589,0,1,1,-1.224744871391589,0A1.224744871391589,1.224744871391589,0,1,1,1.224744871391589,0" fill="white" fill-opacity="0.5"/><path transform="translate(140.20572115384616,199.5)" d="M1.224744871391589,0A1.224744871391589,1.224744871391589,0,1,1,-1.224744871391589,0A1.224744871391589,1.224744871391589,0,1,1,1.224744871391589,0" fill="white" fill-opacity="0.5"/><path transform="translate(124.42759615384614,173.5)" d="M1.224744871391589,0A1.224744871391589,1.224744871391589,0,1,1,-1.224744871391589,0A1.224744871391589,1.224744871391589,0,1,1,1.224744871391589,0" fill="white" fill-opacity="0.5"/><path transform="translate(108.40110576923077,147.5)" d="M1.224744871391589,0A1.224744871391589,1.224744871391589,0,1,1,-1.224744871391589,0A1.224744871391589,1.224744871391589,0,1,1,1.224744871391589,0" fill="white" fill-opacity="0.5"/><path transform="translate(93.09072115384616,121.5)" d="M1.224744871391589,0A1.224744871391589,1.224744871391589,0,1,1,-1.224744871391589,0A1.224744871391589,1.224744871391589,0,1,1,1.224744871391589,0" fill="white" fill-opacity="0.5"/><path transform="translate(77.92615384615385,95.5)" d="M1.224744871391589,0A1.224744871391589,1.224744871391589,0,1,1,-1.224744871391589,0A1.224744871391589,1.224744871391589,0,1,1,1.224744871391589,0" fill="white" fill-opacity="0.5"/><path transform="translate(70.42846153846153,69.5)" d="M1.224744871391589,0A1.224744871391589,1.224744871391589,0,1,1,-1.224744871391589,0A1.224744871391589,1.224744871391589,0,1,1,1.224744871391589,0" fill="white" fill-opacity="0.5"/><path transform="translate(53.184375,43.5)" d="M1.224744871391589,0A1.224744871391589,1.224744871391589,0,1,1,-1.224744871391589,0A1.224744871391589,1.224744871391589,0,1,1,1.224744871391589,0" fill="white" fill-opacity="0.5"/><path transform="translate(70.77677884615385,17.5)" d="M1.224744871391589,0A1.224744871391589,1.224744871391589,0,1,1,-1.224744871391589,0A1.224744871391589,1.224744871391589,0,1,1,1.224744871391589,0" fill="white" fill-opacity="0.5"/></g></g><path class="foreground" aria-hidden="true" d="" display="none"/></g></g><g class="mark-group role-legend" role="graphics-symbol" aria-roledescription="legend" aria-label="Symbol legend for fill color with 2 values: 1, 2"><g transform="translate(823,0)"><path class="background" aria-hidden="true" d="M0,0h45v24h-45Z" pointer-events="none"/><g><g class="mark-group role-legend-entry"><g transform="translate(0,0)"><path class="background" aria-hidden="true" d="M0,0h0v0h0Z" pointer-events="none"/><g><g class="mark-group role-scope" role="graphics-object" aria-roledescription="group mark container"><g transform="translate(0,0)"><path class="background" aria-hidden="true" d="M0,0h44.3447265625v11h-44.3447265625Z" pointer-events="none" opacity="1"/><g><g class="mark-symbol role-legend-symbol" pointer-events="none"><path transform="translate(6,6)" d="M-5,-5h10v10h-10Z" fill="#BC3A5C" stroke-width="1.5" opacity="1"/></g><g class="mark-text role-legend-label" pointer-events="none"><text text-anchor="start" transform="translate(16,9)" font-family="sans-serif" font-size="10px" fill="#000" opacity="1">Dosi 1</text></g></g><path class="foreground" aria-hidden="true" d="" pointer-events="none" display="none"/></g><g transform="translate(0,13)"><path class="background" aria-hidden="true" d="M0,0h44.3447265625v11h-44.3447265625Z" pointer-events="none" opacity="1"/><g><g class="mark-symbol role-legend-symbol" pointer-events="none"><path transform="translate(6,6)" d="M-5,-5h10v10h-10Z" fill="#540032" stroke-width="1.5" opacity="1"/></g><g class="mark-text role-legend-label" pointer-events="none"><text text-anchor="start" transform="translate(16,9)" font-family="sans-serif" font-size="10px" fill="#000" opacity="1">Dosi 2</text></g></g><path class="foreground" aria-hidden="true" d="" pointer-events="none" display="none"/></g></g></g><path class="foreground" aria-hidden="true" d="" pointer-events="none" display="none"/></g></g></g><path class="foreground" aria-hidden="true" d="" pointer-events="none" display="none"/></g></g><g class="mark-group role-title"><g transform="translate(434,-52)"><path class="background" aria-hidden="true" d="M0,0h0v0h0Z" pointer-events="none"/><g><g class="mark-text role-title-text" role="graphics-symbol" aria-roledescription="title" aria-label="Title text 'Vacunació per al COVID-19 per franja d'edat'" pointer-events="none"><text text-anchor="middle" transform="translate(0,16)" font-family="sans-serif" font-size="20px" font-weight="bold" fill="#444444" opacity="1">Vacunació per al COVID-19 per franja d'edat</text></g></g><path class="foreground" aria-hidden="true" d="" pointer-events="none" display="none"/></g></g></g><path class="foreground" aria-hidden="true" d="" display="none"/></g></g></g></svg>